<svg width="200" height="35" viewBox="0 0 316 35" fill="none" xmlns="http://www.w3.org/2000/svg">
<path d="M0.00546896 34V4.57H5.18047V29.59H18.9955V34H0.00546896ZM35.0879 34.54C33.6479 34.54 32.2529 34.285 30.9029 33.775C29.5529 33.265 28.3679 32.515 27.3479 31.525C26.3279 30.535 25.5029 29.32 24.8729 27.88C24.2729 26.44 23.9729 24.805 23.9729 22.975C23.9729 21.145 24.2729 19.51 24.8729 18.07C25.5029 16.63 26.3279 15.415 27.3479 14.425C28.3679 13.435 29.5529 12.685 30.9029 12.175C32.2529 11.635 33.6479 11.365 35.0879 11.365C36.5279 11.365 37.9229 11.635 39.2729 12.175C40.6229 12.685 41.8079 13.435 42.8279 14.425C43.8479 15.415 44.6579 16.63 45.2579 18.07C45.8879 19.51 46.2029 21.145 46.2029 22.975C46.2029 24.805 45.8879 26.44 45.2579 27.88C44.6579 29.32 43.8479 30.535 42.8279 31.525C41.8079 32.515 40.6229 33.265 39.2729 33.775C37.9229 34.285 36.5279 34.54 35.0879 34.54ZM35.0879 30.31C36.8879 30.31 38.2979 29.65 39.3179 28.33C40.3379 26.98 40.8479 25.195 40.8479 22.975C40.8479 20.725 40.3379 18.94 39.3179 17.62C38.2979 16.27 36.8879 15.595 35.0879 15.595C33.2879 15.595 31.8779 16.27 30.8579 17.62C29.8379 18.94 29.3279 20.725 29.3279 22.975C29.3279 25.195 29.8379 26.98 30.8579 28.33C31.8779 29.65 33.2879 30.31 35.0879 30.31ZM66.6153 34.54C64.0353 34.54 62.0703 33.79 60.7203 32.29C59.4003 30.79 58.7403 28.675 58.7403 25.945V6.325H51.3603V2.23H63.9153V26.215C63.9153 27.715 64.2903 28.78 65.0403 29.41C65.8203 30.01 66.7653 30.31 67.8753 30.31C69.0453 30.31 70.3053 30.025 71.6553 29.455L72.8703 33.28C71.7903 33.7 70.8003 34.015 69.9003 34.225C69.0003 34.435 67.9053 34.54 66.6153 34.54ZM88.9177 34V16H79.3327V11.905H94.0927V34H88.9177ZM91.1677 7.855C90.1177 7.855 89.2327 7.54 88.5127 6.91C87.8227 6.28 87.4777 5.44 87.4777 4.39C87.4777 3.34 87.8227 2.5 88.5127 1.87C89.2327 1.21 90.1177 0.879997 91.1677 0.879997C92.2177 0.879997 93.0877 1.21 93.7777 1.87C94.4977 2.5 94.8577 3.34 94.8577 4.39C94.8577 5.44 94.4977 6.28 93.7777 6.91C93.0877 7.54 92.2177 7.855 91.1677 7.855ZM145.448 34.54C143.618 34.54 141.893 34.21 140.273 33.55C138.683 32.89 137.288 31.915 136.088 30.625C134.888 29.335 133.943 27.745 133.253 25.855C132.563 23.965 132.218 21.805 132.218 19.375C132.218 16.975 132.563 14.83 133.253 12.94C133.943 11.02 134.888 9.4 136.088 8.08C137.318 6.76 138.758 5.755 140.408 5.065C142.058 4.375 143.858 4.03 145.808 4.03C147.638 4.03 149.258 4.405 150.668 5.155C152.108 5.905 153.293 6.76 154.223 7.72L151.343 10.96C150.593 10.24 149.768 9.67 148.868 9.25C147.968 8.8 146.948 8.575 145.808 8.575C144.578 8.575 143.453 8.83 142.433 9.34C141.443 9.82 140.588 10.525 139.868 11.455C139.148 12.355 138.578 13.465 138.158 14.785C137.768 16.105 137.573 17.59 137.573 19.24C137.573 20.92 137.768 22.435 138.158 23.785C138.578 25.105 139.148 26.23 139.868 27.16C140.588 28.06 141.458 28.765 142.478 29.275C143.528 29.755 144.683 29.995 145.943 29.995C147.143 29.995 148.223 29.74 149.183 29.23C150.173 28.72 151.088 28 151.928 27.07L154.808 30.265C153.638 31.645 152.273 32.71 150.713 33.46C149.183 34.18 147.428 34.54 145.448 34.54ZM169.865 34V16H160.28V11.905H175.04V34H169.865ZM172.115 7.855C171.065 7.855 170.18 7.54 169.46 6.91C168.77 6.28 168.425 5.44 168.425 4.39C168.425 3.34 168.77 2.5 169.46 1.87C170.18 1.21 171.065 0.879997 172.115 0.879997C173.165 0.879997 174.035 1.21 174.725 1.87C175.445 2.5 175.805 3.34 175.805 4.39C175.805 5.44 175.445 6.28 174.725 6.91C174.035 7.54 173.165 7.855 172.115 7.855ZM187.172 34V11.905H191.447L191.852 15.235H192.032C193.082 14.185 194.237 13.285 195.497 12.535C196.787 11.755 198.287 11.365 199.997 11.365C202.547 11.365 204.422 12.145 205.622 13.705C206.822 15.235 207.422 17.44 207.422 20.32V34H202.202V20.995C202.202 19.195 201.887 17.89 201.257 17.08C200.657 16.24 199.592 15.82 198.062 15.82C196.982 15.82 196.022 16.075 195.182 16.585C194.342 17.095 193.412 17.875 192.392 18.925V34H187.172ZM225.315 34.54C223.635 34.54 222.06 34.285 220.59 33.775C219.12 33.235 217.83 32.47 216.72 31.48C215.64 30.49 214.785 29.275 214.155 27.835C213.525 26.395 213.21 24.76 213.21 22.93C213.21 21.13 213.525 19.525 214.155 18.115C214.785 16.675 215.625 15.46 216.675 14.47C217.755 13.45 218.97 12.685 220.32 12.175C221.7 11.635 223.14 11.365 224.64 11.365C226.29 11.365 227.745 11.635 229.005 12.175C230.265 12.685 231.33 13.405 232.2 14.335C233.07 15.235 233.73 16.33 234.18 17.62C234.63 18.91 234.855 20.32 234.855 21.85C234.855 22.36 234.825 22.855 234.765 23.335C234.735 23.785 234.69 24.16 234.63 24.46H218.385C218.685 26.53 219.51 28.06 220.86 29.05C222.21 30.04 223.92 30.535 225.99 30.535C227.16 30.535 228.24 30.37 229.23 30.04C230.22 29.71 231.21 29.26 232.2 28.69L233.955 31.93C232.785 32.71 231.45 33.34 229.95 33.82C228.48 34.3 226.935 34.54 225.315 34.54ZM224.775 15.37C223.245 15.37 221.895 15.82 220.725 16.72C219.585 17.62 218.85 18.97 218.52 20.77H230.265C230.085 18.97 229.515 17.62 228.555 16.72C227.625 15.82 226.365 15.37 224.775 15.37ZM239.517 34V11.905H243.522L243.927 14.695H244.062C244.542 13.735 245.157 12.94 245.907 12.31C246.657 11.68 247.677 11.365 248.967 11.365C251.037 11.365 252.372 12.595 252.972 15.055C253.482 13.975 254.127 13.09 254.907 12.4C255.687 11.71 256.722 11.365 258.012 11.365C259.572 11.365 260.772 11.98 261.612 13.21C262.482 14.41 262.917 16.12 262.917 18.34V34H257.922V18.7C257.922 16.75 257.337 15.775 256.167 15.775C255.567 15.775 255.057 16.015 254.637 16.495C254.247 16.945 253.827 17.635 253.377 18.565V34H249.057V18.7C249.057 17.74 248.922 17.02 248.652 16.54C248.382 16.03 247.932 15.775 247.302 15.775C246.702 15.775 246.192 16.015 245.772 16.495C245.382 16.945 244.977 17.635 244.557 18.565V34H239.517ZM275.005 34.54C273.925 34.54 272.935 34.375 272.035 34.045C271.135 33.745 270.355 33.31 269.695 32.74C269.035 32.17 268.525 31.495 268.165 30.715C267.805 29.905 267.625 29.02 267.625 28.06C267.625 26.83 267.91 25.75 268.48 24.82C269.05 23.86 269.95 23.05 271.18 22.39C272.41 21.73 273.985 21.19 275.905 20.77C277.825 20.35 280.15 20.05 282.88 19.87C282.79 18.61 282.34 17.575 281.53 16.765C280.72 15.955 279.415 15.55 277.615 15.55C276.355 15.55 275.11 15.79 273.88 16.27C272.68 16.72 271.51 17.26 270.37 17.89L268.48 14.425C269.83 13.645 271.375 12.94 273.115 12.31C274.855 11.68 276.67 11.365 278.56 11.365C281.65 11.365 284.005 12.19 285.625 13.84C287.245 15.46 288.055 17.815 288.055 20.905V34H283.825L283.42 31.255H283.285C282.115 32.155 280.81 32.935 279.37 33.595C277.96 34.225 276.505 34.54 275.005 34.54ZM276.58 30.49C277.69 30.49 278.755 30.25 279.775 29.77C280.825 29.26 281.86 28.6 282.88 27.79V23.11C280.9 23.26 279.25 23.47 277.93 23.74C276.61 23.98 275.56 24.295 274.78 24.685C274 25.075 273.445 25.525 273.115 26.035C272.785 26.515 272.62 27.055 272.62 27.655C272.62 28.645 272.995 29.365 273.745 29.815C274.525 30.265 275.47 30.49 276.58 30.49ZM305.047 34.54C302.977 34.54 300.997 34.21 299.107 33.55C297.217 32.86 295.582 32.05 294.202 31.12L296.452 27.835C297.802 28.705 299.227 29.395 300.727 29.905C302.257 30.385 303.922 30.625 305.722 30.625C307.252 30.625 308.377 30.37 309.097 29.86C309.847 29.35 310.222 28.72 310.222 27.97C310.222 27.61 310.147 27.295 309.997 27.025C309.847 26.725 309.547 26.44 309.097 26.17C308.647 25.9 308.017 25.645 307.207 25.405C306.427 25.165 305.392 24.91 304.102 24.64C301.132 24.04 298.957 23.2 297.577 22.12C296.227 21.04 295.552 19.66 295.552 17.98C295.552 16.03 296.392 14.44 298.072 13.21C299.752 11.98 302.152 11.365 305.272 11.365C307.102 11.365 308.812 11.665 310.402 12.265C311.992 12.865 313.357 13.54 314.497 14.29L312.112 17.485C311.032 16.795 309.877 16.255 308.647 15.865C307.417 15.475 306.142 15.28 304.822 15.28C303.352 15.28 302.302 15.52 301.672 16C301.042 16.45 300.727 17.02 300.727 17.71C300.727 18.49 301.177 19.075 302.077 19.465C302.977 19.855 304.447 20.275 306.487 20.725C308.257 21.115 309.712 21.535 310.852 21.985C311.992 22.435 312.892 22.945 313.552 23.515C314.242 24.055 314.722 24.67 314.992 25.36C315.262 26.05 315.397 26.83 315.397 27.7C315.397 28.66 315.172 29.56 314.722 30.4C314.272 31.21 313.612 31.93 312.742 32.56C311.872 33.16 310.792 33.64 309.502 34C308.212 34.36 306.727 34.54 305.047 34.54Z" fill="#E2E2E2"/>
</svg>
